<?xml version="1.0" standalone="no"?><!DOCTYPE svg PUBLIC "-//W3C//DTD SVG 1.1//EN" "http://www.w3.org/Graphics/SVG/1.1/DTD/svg11.dtd"><svg t="1618478609589" class="icon" viewBox="0 0 1024 1024" version="1.1" xmlns="http://www.w3.org/2000/svg" p-id="7374" xmlns:xlink="http://www.w3.org/1999/xlink" width="200" height="200"><defs><style type="text/css"></style></defs><path d="M634.026667 771.413333a36.266667 36.266667 0 0 1-25.173334-6.826666 34.133333 34.133333 0 0 1-8.96-27.733334v-108.373333h180.906667a74.24 74.24 0 0 0 54.613333-20.48A71.253333 71.253333 0 0 0 853.333333 554.666667v-104.106667a70.4 70.4 0 0 0-18.773333-52.906667 74.24 74.24 0 0 0-37.973333-18.773333h-5.546667l22.613333-52.48a96.853333 96.853333 0 0 0 7.68-31.573333 62.72 62.72 0 0 0-20.48-46.08 81.066667 81.066667 0 0 0-59.733333-20.48h-426.666667l13.226667-40.106667H261.12l-2.986667 8.533333a219.733333 219.733333 0 0 1-37.12 70.826667 96.426667 96.426667 0 0 1-47.786666 35.84l-8.533334 2.986667v63.146666l17.066667-6.4a264.533333 264.533333 0 0 0 49.493333-24.746666 177.066667 177.066667 0 0 0 49.493334-47.36h430.933333a66.56 66.56 0 0 1 31.146667 4.266666c5.973333 0 10.24 5.973333 10.24 16.64a73.813333 73.813333 0 0 1-5.973334 23.893334l-20.053333 42.666666H280.32a115.626667 115.626667 0 0 0-78.08 18.773334 78.933333 78.933333 0 0 0-20.906667 59.733333V554.666667a66.56 66.56 0 0 0 42.666667 72.106666 125.44 125.44 0 0 0 47.786667 4.693334h115.2l-5.546667 6.4a433.493333 433.493333 0 0 1-87.893333 85.333333 519.68 519.68 0 0 1-128 55.466667l-10.24 3.413333 5.973333 52.053333h11.52a133.546667 133.546667 0 0 0 40.533333-7.253333 370.346667 370.346667 0 0 0 130.56-62.293333A481.706667 481.706667 0 0 0 469.333333 628.48h66.133334v135.68a65.706667 65.706667 0 0 0 19.2 52.906667 72.96 72.96 0 0 0 52.906666 18.773333h256v-64.426667z m123.306666-205.653333h-256l8.106667-32.426667c6.826667-28.586667 13.653333-57.6 17.92-87.893333v-2.56h228.266667a42.666667 42.666667 0 0 1 26.453333 8.106667 25.6 25.6 0 0 1 9.386667 23.04v69.12c0 11.52-5.546667 22.613333-34.133334 22.613333z m-298.666666-124.586667v4.266667a380.16 380.16 0 0 1-32.426667 115.626667v2.986666H275.2a27.306667 27.306667 0 0 1-31.146667-27.733333v-64a27.306667 27.306667 0 0 1 31.146667-31.146667z" p-id="7375" fill="#ffffff"></path></svg>